PathFileType	4	(X/Y/Z)	Walk2.trc
DataRate	CameraRate	NumFrames	NumMarkers	Units	OrigDataRate	OrigDataStartFrame	OrigNumFrames
200.000000	200.000000	4	61	mm	200.000000	460	591
Frame#	Times		LFHD		RFHD		CLAV		STRN		LASI		RASI		RACR1		RUA1		RElbow		RFA1		RWRR		RWRU		RCAR		LACR1		LUA1		LElbow		LFA1		LWRR		RTH3		RTH2		RTB1		RTB3		RTB2		RTB4		LTH1		LTH3		LLFC		LMFC		LTB1		LTB2		LMT1		LWRU		LCAR		LTB3		RMFC		LTB4		RMMAL		LTH4		LTH2		RToe		RElbowM		RMT1		RLFC		RTH4		RTH1		LBHD		RCAL		RLMAL		LToe		RBack		RMT5		LMT5		RPSI		LLMAL		C7		LPSI		LMMAL		T10		LCAL		RBHD		LElbowM
			X1	Y1	Z1	X2	Y2	Z2	X3	Y3	Z3	X4	Y4	Z4	X5	Y5	Z5	X6	Y6	Z6	X7	Y7	Z7	X8	Y8	Z8	X9	Y9	Z9	X10	Y10	Z10	X11	Y11	Z11	X12	Y12	Z12	X13	Y13	Z13	X14	Y14	Z14	X15	Y15	Z15	X16	Y16	Z16	X17	Y17	Z17	X18	Y18	Z18	X19	Y19	Z19	X20	Y20	Z20	X21	Y21	Z21	X22	Y22	Z22	X23	Y23	Z23	X24	Y24	Z24	X25	Y25	Z25	X26	Y26	Z26	X27	Y27	Z27	X28	Y28	Z28	X29	Y29	Z29	X30	Y30	Z30	X31	Y31	Z31	X32	Y32	Z32	X33	Y33	Z33	X34	Y34	Z34	X35	Y35	Z35	X36	Y36	Z36	X37	Y37	Z37	X38	Y38	Z38	X39	Y39	Z39	X40	Y40	Z40	X41	Y41	Z41	X42	Y42	Z42	X43	Y43	Z43	X44	Y44	Z44	X45	Y45	Z45	X46	Y46	Z46	X47	Y47	Z47	X48	Y48	Z48	X49	Y49	Z49	X50	Y50	Z50	X51	Y51	Z51	X52	Y52	Z52	X53	Y53	Z53	X54	Y54	Z54	X55	Y55	Z55	X56	Y56	Z56	X57	Y57	Z57	X58	Y58	Z58	X59	Y59	Z59	X60	Y60	Z60	X61	Y61	Z61

460	2.3	690.61	1657.1	-40.546	690.82	1663.7	58.324	695.75	1400.8	26.584	762.61	1242	25.427	656.11	986.83	-152.75	648.88	987.99	213.39	576.76	1480.1	196.97	574.47	1314.4	318.34	614.73	1175	377.92	678.28	1036.5	399.33	727.64	924.07	336.08	717.65	929.97	417.6	770.49	855.44	389.01	579.85	1468.2	-155.8	514.36	1308.6	-245.21	467.26	1152	-296.41	464.22	1011.6	-310.9	497.98	880.61	-256.62	506.54	605.97	202.02	571.89	687.99	204.43	503.08	362.29	110.28	440.88	202.17	86.412	451.01	282.83	156.42	471.18	281.85	98.342	648.62	758.91	-181.95	713.97	601.69	-155.75	722.23	520.68	-150.59	751.75	519.75	5.0773	833.33	436.39	-103.25	828.17	338.19	-138.5	1028.7	122.46	-81.954	444.76	871.66	-309.71	484.93	790.76	-286.2	884.82	274.28	-77.742	469.46	500.18	31.952	862.45	357.98	-89.99	365.38	85.756	19.242	680.56	681.09	-171.12	732.05	705.17	-150.42	530.56	28.042	96.91	574.02	1088.2	288.24	484.1	26.866	59.565	470.98	491.45	187.18	514.33	690.16	216.63	520.72	775.74	231.39	541.6	1576.2	-46.703	264.58	59.102	52.876	327	80.77	103.16	1061.8	142.81	-127.87	438.89	1356.9	137.93	427.37	28.121	151.27	976.02	74.382	-142.57	394.37	1035.9	47.745	864.34	91.521	-71.974	503.07	1480	25.56	410.23	1030.2	-33.238	897.44	115.33	6.8717	443.76	1164.6	16.109	842.87	44.626	-8.2202	557.05	1591.7	100.83	400.45	1107.4	-199.8
461	2.305	696.71	1655.9	-41.529	696.87	1662.7	57.335	701.92	1399.6	26.051	768.78	1240.8	25.246	662.54	985.27	-152.71	654.26	987.05	213.58	582.74	1479.2	196.13	580.76	1313.8	317.81	621.2	1174.6	377.64	685.16	1036.4	399.24	734.89	923.99	336.11	724.9	929.96	417.63	777.99	855.59	389.1	586.29	1466.8	-156.58	520.44	1307.3	-245.75	472.85	1150.7	-296.65	469.31	1010.2	-311	502.71	879.22	-256.67	509.95	605.43	202.03	575.78	687.07	204.54	505.14	361.61	110.34	441.96	201.9	86.385	452.47	282.53	156.38	472.74	281.39	98.333	655.03	757.62	-181.54	720.58	600.59	-154.88	729.16	519.58	-149.83	758.23	518.8	5.8647	841.11	436.42	-102.58	837.04	338.13	-137.85	1040.5	124.82	-81.213	449.34	870.41	-309.64	489.15	789.35	-286.06	894.57	274.85	-77.177	472.74	499.8	31.88	871.19	358.31	-89.388	365.76	85.998	19.106	687.07	679.89	-170.46	738.51	704.11	-149.81	530.68	27.956	97.074	580.61	1087.5	288.18	484.13	26.878	59.593	473.72	491.08	187.09	518.21	689.57	216.63	525.08	775.12	231.38	547.76	1574.8	-47.639	264.75	59.763	52.624	327.29	81.167	102.99	1073.4	145.63	-127	444.94	1355.9	137.11	427.31	28.067	151.11	988.4	75.974	-141.95	400.35	1035	46.986	876.35	91.78	-71.384	509.24	1478.9	24.668	416.41	1029.1	-33.972	909.11	115.99	7.4443	449.8	1163.5	15.409	855.39	44.514	-7.6452	563.12	1590.6	99.878	406.07	1106.4	-199.89
462	2.31	702.83	1654.7	-42.552	702.93	1661.6	56.303	708.12	1398.4	25.485	774.98	1239.6	25.034	669.01	983.7	-152.67	659.71	986.12	213.75	588.74	1478.3	195.25	587.06	1313.1	317.24	627.64	1174.2	377.32	691.99	1036.2	399.12	742.07	923.9	336.11	732.09	929.93	417.63	785.43	855.73	389.17	592.77	1465.4	-157.4	526.57	1305.9	-246.31	478.51	1149.3	-296.91	474.48	1008.9	-311.12	507.55	877.81	-256.74	513.42	604.88	202.03	579.71	686.14	204.65	507.27	360.93	110.4	443.07	201.63	86.364	453.99	282.24	156.35	474.36	280.93	98.33	661.55	756.41	-181.17	727.38	599.59	-154.1	736.24	518.57	-149.16	764.93	517.95	6.5543	848.88	436.37	-101.97	845.73	338	-137.22	1051.5	126.77	-80.445	454.02	869.12	-309.6	493.49	787.91	-285.94	903.98	275.28	-76.607	476.11	499.4	31.809	879.76	358.52	-88.81	366.14	86.27	18.984	693.74	678.79	-169.87	745.11	703.15	-149.22	530.8	27.872	97.23	587.2	1086.8	288.08	484.16	26.891	59.621	476.53	490.71	187	522.14	688.98	216.63	529.48	774.49	231.36	553.95	1573.5	-48.616	264.93	60.478	52.4	327.59	81.597	102.84	1084.4	147.96	-126.13	451.01	1354.9	136.26	427.25	28.014	150.95	999.98	77.289	-141.29	406.36	1034.1	46.245	887.63	91.953	-70.747	515.43	1477.7	23.734	422.61	1028	-34.693	920.12	116.51	8.0628	455.87	1162.3	14.723	867.11	44.374	-7.0157	569.21	1589.4	98.884	411.76	1105.4	-200.01
463	2.315	708.98	1653.5	-43.615	709.02	1660.5	55.23	714.34	1397.2	24.881	781.22	1238.3	24.788	675.51	982.14	-152.62	665.22	985.18	213.87	594.77	1477.4	194.33	593.37	1312.5	316.63	634.05	1173.7	376.97	698.78	1036	398.97	749.2	923.8	336.09	739.21	929.89	417.6	792.79	855.86	389.22	599.28	1464	-158.26	532.76	1304.4	-246.91	484.24	1148	-297.2	479.75	1007.5	-311.27	512.48	876.36	-256.83	516.96	604.33	202.04	583.71	685.22	204.77	509.47	360.23	110.45	444.21	201.38	86.348	455.56	281.96	156.32	476.03	280.47	98.332	668.2	755.29	-180.84	734.38	598.7	-153.41	743.49	517.64	-148.57	771.86	517.23	7.1489	856.66	436.21	-101.39	854.23	337.78	-136.61	1061.8	128.29	-79.637	458.83	867.78	-309.59	497.97	786.43	-285.86	913.05	275.52	-76.018	479.57	498.99	31.737	888.16	358.58	-88.243	366.53	86.573	18.877	700.56	677.78	-169.33	751.85	702.32	-148.66	530.92	27.793	97.376	593.77	1086.1	287.94	484.2	26.904	59.649	479.42	490.33	186.91	526.13	688.37	216.63	533.93	773.85	231.34	560.16	1572.1	-49.637	265.12	61.253	52.206	327.91	82.066	102.71	1094.6	149.79	-125.23	457.1	1353.9	135.37	427.21	27.959	150.79	1010.7	78.305	-140.58	412.4	1033.1	45.528	898.17	92.016	-70.059	521.65	1476.6	22.756	428.84	1026.8	-35.396	930.43	116.85	8.7339	461.96	1161.1	14.054	878.01	44.182	-6.3339	575.33	1588.3	97.851	417.53	1104.3	-200.16
